<?xml version="1.0" standalone="no"?>
<!DOCTYPE svg PUBLIC "-//W3C//DTD SVG 20010904//EN"
 "http://www.w3.org/TR/2001/REC-SVG-20010904/DTD/svg10.dtd">
<svg version="1.0" xmlns="http://www.w3.org/2000/svg"
 width="640.000000pt" height="640.000000pt" viewBox="0 0 640.000000 640.000000"
 preserveAspectRatio="xMidYMid meet">

<g transform="translate(0.000000,640.000000) scale(0.100000,-0.100000)"
fill="#000000" stroke="none">
<path d="M0 3200 l0 -3200 3200 0 3200 0 0 3200 0 3200 -3200 0 -3200 0 0
-3200z m2932 1433 l3 -28 214 -3 c222 -3 241 1 241 39 0 18 12 19 258 19 333
0 436 -15 612 -87 120 -50 167 -75 261 -139 164 -111 260 -213 364 -383 80
-133 118 -231 169 -442 25 -101 64 -260 86 -354 23 -93 48 -195 56 -226 7 -31
18 -103 23 -160 34 -407 -122 -783 -445 -1070 -151 -135 -411 -252 -635 -284
-91 -14 -225 -16 -980 -12 -953 4 -940 3 -1124 64 -173 56 -348 164 -475 292
-191 192 -302 396 -361 662 -30 132 -32 329 -5 464 37 189 196 813 224 881 86
208 244 411 423 546 108 81 202 130 335 174 180 60 269 72 526 73 l227 1 3
-27z"/>
<path d="M2327 3779 c-42 -22 -89 -90 -108 -156 -20 -72 -16 -73 196 -73 215
0 215 0 193 82 -16 63 -60 124 -108 149 -46 25 -124 24 -173 -2z"/>
<path d="M3925 3786 c-44 -19 -90 -76 -115 -143 -33 -89 -36 -88 186 -91 215
-3 220 -1 202 66 -40 144 -159 218 -273 168z"/>
<path d="M3973 3272 c-38 -3 -43 -6 -43 -28 0 -73 -75 -166 -154 -189 -64 -19
-75 -19 -141 6 -86 32 -127 82 -149 182 l-6 27 -264 0 -264 0 -11 -47 c-18
-71 -58 -122 -116 -150 -62 -28 -143 -30 -200 -4 -66 29 -125 113 -125 176 l0
25 -227 -2 -228 -3 -3 -30 c-2 -17 6 -72 17 -122 103 -459 421 -801 836 -898
l53 -12 11 42 c15 60 62 119 116 145 67 32 166 26 224 -15 45 -31 85 -90 96
-143 6 -31 8 -32 43 -26 195 35 403 148 562 304 168 165 289 389 340 628 17
80 19 106 10 117 -9 11 -48 15 -173 17 -89 2 -181 2 -204 0z"/>
</g>
</svg>
